<mxfile host="app.diagrams.net" modified="2024-01-03T09:53:21.333Z" agent="Mozilla/5.0 (Windows NT 10.0; Win64; x64) AppleWebKit/537.36 (KHTML, like Gecko) Chrome/116.0.0.0 Safari/537.36" etag="tna6I7mDHBO-dYuSlpj1" version="22.1.16" type="github">
  <diagram name="第 1 页" id="CVmsUMpqrHY093zlfx2p">
    <mxGraphModel dx="875" dy="452" grid="1" gridSize="10" guides="1" tooltips="1" connect="1" arrows="1" fold="1" page="1" pageScale="1" pageWidth="827" pageHeight="1169" math="0" shadow="0">
      <root>
        <mxCell id="0" />
        <mxCell id="1" parent="0" />
        <mxCell id="QRnUijK3OwcHCtFtSfkU-2" value="/apps/{appId}/versions/{vId}/add" style="text;html=1;align=center;verticalAlign=middle;resizable=0;points=[];autosize=1;strokeColor=none;fillColor=none;" vertex="1" parent="1">
          <mxGeometry x="245" y="18" width="190" height="30" as="geometry" />
        </mxCell>
        <mxCell id="QRnUijK3OwcHCtFtSfkU-7" value="" style="edgeStyle=orthogonalEdgeStyle;rounded=0;orthogonalLoop=1;jettySize=auto;html=1;" edge="1" parent="1" source="QRnUijK3OwcHCtFtSfkU-3" target="QRnUijK3OwcHCtFtSfkU-6">
          <mxGeometry relative="1" as="geometry" />
        </mxCell>
        <mxCell id="QRnUijK3OwcHCtFtSfkU-3" value="&lt;font style=&quot;font-size: 11px;&quot;&gt;开始&lt;br style=&quot;font-size: 11px;&quot;&gt;（入参携带所需资源信息）&lt;br&gt;&lt;/font&gt;" style="strokeWidth=2;html=1;shape=mxgraph.flowchart.start_1;whiteSpace=wrap;" vertex="1" parent="1">
          <mxGeometry x="290" y="70" width="100" height="60" as="geometry" />
        </mxCell>
        <mxCell id="QRnUijK3OwcHCtFtSfkU-9" value="" style="edgeStyle=orthogonalEdgeStyle;rounded=0;orthogonalLoop=1;jettySize=auto;html=1;" edge="1" parent="1" source="QRnUijK3OwcHCtFtSfkU-6" target="QRnUijK3OwcHCtFtSfkU-8">
          <mxGeometry relative="1" as="geometry" />
        </mxCell>
        <mxCell id="QRnUijK3OwcHCtFtSfkU-15" value="" style="edgeStyle=orthogonalEdgeStyle;rounded=0;orthogonalLoop=1;jettySize=auto;html=1;" edge="1" parent="1" source="QRnUijK3OwcHCtFtSfkU-6" target="QRnUijK3OwcHCtFtSfkU-14">
          <mxGeometry relative="1" as="geometry" />
        </mxCell>
        <mxCell id="QRnUijK3OwcHCtFtSfkU-6" value="是【非合作游戏】？" style="rhombus;whiteSpace=wrap;html=1;strokeWidth=2;" vertex="1" parent="1">
          <mxGeometry x="260" y="220" width="160" height="80" as="geometry" />
        </mxCell>
        <mxCell id="QRnUijK3OwcHCtFtSfkU-19" style="edgeStyle=orthogonalEdgeStyle;rounded=0;orthogonalLoop=1;jettySize=auto;html=1;entryX=0.5;entryY=0;entryDx=0;entryDy=0;" edge="1" parent="1" source="QRnUijK3OwcHCtFtSfkU-8" target="QRnUijK3OwcHCtFtSfkU-14">
          <mxGeometry relative="1" as="geometry" />
        </mxCell>
        <mxCell id="QRnUijK3OwcHCtFtSfkU-8" value="资源等级修改为-1" style="whiteSpace=wrap;html=1;strokeWidth=2;" vertex="1" parent="1">
          <mxGeometry x="40" y="330" width="120" height="60" as="geometry" />
        </mxCell>
        <mxCell id="QRnUijK3OwcHCtFtSfkU-10" value="非合作游戏，也就是没有合作的游戏。&lt;br&gt;对商店全场景屏蔽，也就是-1。&lt;br&gt;目前仅对游戏中心部分场景分发" style="text;html=1;align=center;verticalAlign=middle;resizable=0;points=[];autosize=1;strokeColor=none;fillColor=none;" vertex="1" parent="1">
          <mxGeometry y="168" width="230" height="60" as="geometry" />
        </mxCell>
        <mxCell id="QRnUijK3OwcHCtFtSfkU-11" value="Y" style="text;html=1;align=center;verticalAlign=middle;resizable=0;points=[];autosize=1;strokeColor=none;fillColor=none;" vertex="1" parent="1">
          <mxGeometry x="230" y="228" width="30" height="30" as="geometry" />
        </mxCell>
        <mxCell id="QRnUijK3OwcHCtFtSfkU-12" value="N" style="text;html=1;align=center;verticalAlign=middle;resizable=0;points=[];autosize=1;strokeColor=none;fillColor=none;" vertex="1" parent="1">
          <mxGeometry x="345" y="298" width="30" height="30" as="geometry" />
        </mxCell>
        <mxCell id="QRnUijK3OwcHCtFtSfkU-25" value="" style="edgeStyle=orthogonalEdgeStyle;rounded=0;orthogonalLoop=1;jettySize=auto;html=1;" edge="1" parent="1" source="QRnUijK3OwcHCtFtSfkU-14" target="QRnUijK3OwcHCtFtSfkU-24">
          <mxGeometry relative="1" as="geometry" />
        </mxCell>
        <mxCell id="QRnUijK3OwcHCtFtSfkU-14" value="上架信息http发送给游戏中心同步物料" style="whiteSpace=wrap;html=1;strokeWidth=2;" vertex="1" parent="1">
          <mxGeometry x="280" y="510" width="120" height="60" as="geometry" />
        </mxCell>
        <mxCell id="QRnUijK3OwcHCtFtSfkU-23" value="物料 material？&lt;br&gt;appId为配置中心配置的&lt;br&gt;resourceId为资源的appID" style="text;html=1;align=center;verticalAlign=middle;resizable=0;points=[];autosize=1;strokeColor=none;fillColor=none;" vertex="1" parent="1">
          <mxGeometry x="110" y="510" width="160" height="60" as="geometry" />
        </mxCell>
        <mxCell id="QRnUijK3OwcHCtFtSfkU-27" value="" style="edgeStyle=orthogonalEdgeStyle;rounded=0;orthogonalLoop=1;jettySize=auto;html=1;" edge="1" parent="1" source="QRnUijK3OwcHCtFtSfkU-24" target="QRnUijK3OwcHCtFtSfkU-26">
          <mxGeometry relative="1" as="geometry" />
        </mxCell>
        <mxCell id="QRnUijK3OwcHCtFtSfkU-24" value="不处理差分包，设置为null" style="whiteSpace=wrap;html=1;strokeWidth=2;" vertex="1" parent="1">
          <mxGeometry x="280" y="650" width="120" height="60" as="geometry" />
        </mxCell>
        <mxCell id="QRnUijK3OwcHCtFtSfkU-29" value="" style="edgeStyle=orthogonalEdgeStyle;rounded=0;orthogonalLoop=1;jettySize=auto;html=1;" edge="1" parent="1" source="QRnUijK3OwcHCtFtSfkU-26" target="QRnUijK3OwcHCtFtSfkU-28">
          <mxGeometry relative="1" as="geometry" />
        </mxCell>
        <mxCell id="QRnUijK3OwcHCtFtSfkU-26" value="设置status=1" style="whiteSpace=wrap;html=1;strokeWidth=2;" vertex="1" parent="1">
          <mxGeometry x="280" y="790" width="120" height="60" as="geometry" />
        </mxCell>
        <mxCell id="QRnUijK3OwcHCtFtSfkU-33" value="" style="edgeStyle=orthogonalEdgeStyle;rounded=0;orthogonalLoop=1;jettySize=auto;html=1;" edge="1" parent="1" source="QRnUijK3OwcHCtFtSfkU-28" target="QRnUijK3OwcHCtFtSfkU-32">
          <mxGeometry relative="1" as="geometry" />
        </mxCell>
        <mxCell id="QRnUijK3OwcHCtFtSfkU-28" value="检查bundle包" style="whiteSpace=wrap;html=1;strokeWidth=2;" vertex="1" parent="1">
          <mxGeometry x="280" y="930" width="120" height="60" as="geometry" />
        </mxCell>
        <mxCell id="QRnUijK3OwcHCtFtSfkU-37" value="" style="edgeStyle=orthogonalEdgeStyle;rounded=0;orthogonalLoop=1;jettySize=auto;html=1;" edge="1" parent="1" source="QRnUijK3OwcHCtFtSfkU-32" target="QRnUijK3OwcHCtFtSfkU-36">
          <mxGeometry relative="1" as="geometry" />
        </mxCell>
        <mxCell id="QRnUijK3OwcHCtFtSfkU-32" value="从Version的POJO中获取bundle的布尔值，为1则继续校验" style="whiteSpace=wrap;html=1;strokeWidth=2;" vertex="1" parent="1">
          <mxGeometry x="580" y="930" width="120" height="60" as="geometry" />
        </mxCell>
        <mxCell id="QRnUijK3OwcHCtFtSfkU-34" value="为什么要检查？" style="text;html=1;align=center;verticalAlign=middle;resizable=0;points=[];autosize=1;strokeColor=#b85450;fillColor=#f8cecc;" vertex="1" parent="1">
          <mxGeometry x="390" y="890" width="110" height="30" as="geometry" />
        </mxCell>
        <mxCell id="QRnUijK3OwcHCtFtSfkU-40" value="" style="edgeStyle=orthogonalEdgeStyle;rounded=0;orthogonalLoop=1;jettySize=auto;html=1;" edge="1" parent="1" source="QRnUijK3OwcHCtFtSfkU-36" target="QRnUijK3OwcHCtFtSfkU-39">
          <mxGeometry relative="1" as="geometry" />
        </mxCell>
        <mxCell id="QRnUijK3OwcHCtFtSfkU-36" value="获取分布式锁&lt;br&gt;KEY：bundle:appId:{appId}:{code}" style="whiteSpace=wrap;html=1;strokeWidth=2;" vertex="1" parent="1">
          <mxGeometry x="540" y="1070" width="200" height="70" as="geometry" />
        </mxCell>
        <mxCell id="QRnUijK3OwcHCtFtSfkU-38" value="code是Version表的版本号" style="text;html=1;align=center;verticalAlign=middle;resizable=0;points=[];autosize=1;strokeColor=none;fillColor=none;" vertex="1" parent="1">
          <mxGeometry x="760" y="1090" width="160" height="30" as="geometry" />
        </mxCell>
        <mxCell id="QRnUijK3OwcHCtFtSfkU-42" value="" style="edgeStyle=orthogonalEdgeStyle;rounded=0;orthogonalLoop=1;jettySize=auto;html=1;" edge="1" parent="1" source="QRnUijK3OwcHCtFtSfkU-39" target="QRnUijK3OwcHCtFtSfkU-41">
          <mxGeometry relative="1" as="geometry" />
        </mxCell>
        <mxCell id="QRnUijK3OwcHCtFtSfkU-39" value="从region_version和version获取同版本在架列表" style="whiteSpace=wrap;html=1;strokeWidth=2;" vertex="1" parent="1">
          <mxGeometry x="580" y="1225" width="120" height="60" as="geometry" />
        </mxCell>
        <mxCell id="QRnUijK3OwcHCtFtSfkU-44" value="" style="edgeStyle=orthogonalEdgeStyle;rounded=0;orthogonalLoop=1;jettySize=auto;html=1;" edge="1" parent="1" source="QRnUijK3OwcHCtFtSfkU-41" target="QRnUijK3OwcHCtFtSfkU-43">
          <mxGeometry relative="1" as="geometry" />
        </mxCell>
        <mxCell id="QRnUijK3OwcHCtFtSfkU-41" value="如果没有同版本在架，才允许上架" style="whiteSpace=wrap;html=1;strokeWidth=2;" vertex="1" parent="1">
          <mxGeometry x="580" y="1365" width="120" height="60" as="geometry" />
        </mxCell>
        <mxCell id="QRnUijK3OwcHCtFtSfkU-43" value="" style="whiteSpace=wrap;html=1;strokeWidth=2;" vertex="1" parent="1">
          <mxGeometry x="580" y="1505" width="120" height="60" as="geometry" />
        </mxCell>
      </root>
    </mxGraphModel>
  </diagram>
</mxfile>
